<svg xmlns="http://www.w3.org/2000/svg" viewBox="0 0 200 160" width="200" height="160">
  <!-- Outer green oval/capsule -->
  <ellipse cx="100" cy="80" rx="90" ry="68" fill="#4ea647" />
  <!-- Upper right swoosh in white -->
  <path d="M 152 46 C 158 35 142 24 122 28 C 98 33 82 52 86 73 C 89 88 103 94 116 93 C 132 91 146 76 138 60 C 133 50 120 46 112 50 C 102 55 102 65 108 67 C 114 69 122 65 120 59 C 119 54 113 54 110 56 C 114 47 127 45 136 50 C 146 56 142 72 126 77 C 108 82 92 73 91 56 C 90 38 110 28 132 28 C 146 28 158 34 152 46 Z" fill="#ffffff" opacity="0.98"/>
  <!-- Lower left swoosh in white -->
  <path d="M 48 114 C 42 125 58 136 78 132 C 102 127 118 108 114 87 C 111 72 97 66 84 67 C 68 69 54 84 62 100 C 67 110 80 114 88 110 C 98 105 98 95 92 93 C 86 91 78 95 80 101 C 81 106 87 106 90 104 C 86 113 73 115 64 110 C 54 104 58 88 74 83 C 92 78 108 87 109 104 C 110 122 90 132 68 132 C 54 132 42 126 48 114 Z" fill="#ffffff" opacity="0.98"/>
  <!-- Smooth organic leaf curves matching image.png -->
  <g fill="#ffffff">
    <path d="M 108 30 C 128 32 154 44 148 70 C 142 90 118 96 100 86 C 92 81 88 72 90 64 C 94 48 112 44 122 52 C 128 57 126 65 120 67 C 114 68 110 63 111 59 C 112 55 117 55 118 57 C 120 60 116 63 113 62 C 110 61 113 54 120 54 C 128 54 134 62 131 71 C 127 82 110 84 99 76 C 88 68 90 50 99 41 C 105 34 114 31 124 31" />
    <path d="M 92 130 C 72 128 46 116 52 90 C 58 70 82 64 100 74 C 108 79 112 88 110 96 C 106 112 88 116 78 108 C 72 103 74 95 80 93 C 86 92 90 97 89 101 C 88 105 83 105 82 103 C 80 100 84 97 87 98 C 90 99 87 106 80 106 C 72 106 66 98 69 89 C 73 78 90 76 101 84 C 112 92 110 110 101 119 C 95 126 86 129 76 129" />
  </g>
</svg>
